<svg width="169" height="240" viewBox="0 0 169 240" fill="none" xmlns="http://www.w3.org/2000/svg">
<path d="M22.1933 203.5L39.6933 166L51.1933 171.5L117.693 184L133.799 171.5C136.799 177.333 144.093 197.8 145.693 205C147.293 212.2 144.027 216.333 142.193 217.5C143.193 219.167 144.893 222.9 143.693 224.5C142.193 226.5 126.193 230.5 125.193 230.5C124.393 230.5 121.682 222.833 120.427 219C120.989 228.177 121.228 235.431 120.693 236.5C119.193 239.5 51.1933 238 47.6933 236.5C44.8933 235.3 48.8599 192.667 51.1933 171.5L42.6933 230.5C39.6933 230.5 23.6933 224 23.1933 222.5C22.7933 221.3 23.6933 217.667 24.1933 216C20.1933 215.6 21.1933 207.5 22.1933 203.5Z" fill="#D9D9D9"/>
<path d="M51.1933 171.5L42.6933 230.5C39.6933 230.5 23.6933 224 23.1933 222.5C22.7933 221.3 23.6933 217.667 24.1933 216C20.1933 215.6 21.1933 207.5 22.1933 203.5L39.6933 166L51.1933 171.5ZM51.1933 171.5C48.8599 192.667 44.8933 235.3 47.6933 236.5C51.1933 238 119.193 239.5 120.693 236.5C121.228 235.431 120.989 228.177 120.427 219M51.1933 171.5L117.693 184M117.693 184C118.525 193.153 119.727 207.568 120.427 219M117.693 184L133.799 171.5C136.799 177.333 144.093 197.8 145.693 205C147.293 212.2 144.027 216.333 142.193 217.5C143.193 219.167 144.893 222.9 143.693 224.5C142.193 226.5 126.193 230.5 125.193 230.5C124.393 230.5 121.682 222.833 120.427 219" stroke="#1A1414"/>
<path d="M25.1973 224.5C19.7988 231.5 25.2988 249 40.2988 230.5L25.1973 224.5Z" fill="#FDDD9D" stroke="#1A1414"/>
<path d="M141.797 226.953C142.871 231.573 140.199 249.402 126.303 231.53L141.797 226.953Z" fill="#FDDD9D" stroke="#1A1414"/>
<path d="M147.971 48.3121C152.26 57.5151 153.732 66.2887 155.715 73.1322C158.055 81.2119 160.624 96.2565 159.724 111.164C159.122 121.135 156.446 132.043 155.381 136.371C153.717 143.133 145.954 151.473 140.038 157.044C140.85 163.145 138.511 168.756 132.635 175.942C124.99 185.289 105.59 195.755 82.1489 193.812C40.6893 190.373 33.1653 170.627 32.2404 161.444C21.4029 155.754 16.4912 148.61 13.7275 142.332C9.57888 132.91 7.37555 124.169 9.38644 86.1928C11.3973 48.2165 25.2735 33.9353 40.1455 19.7464C52.043 8.39524 71.0414 6.03729 79.0534 6.27721C111.212 6.042 128.736 19.2478 133.478 25.8801C134.683 25.6947 143.564 38.8591 147.971 48.3121Z" fill="#B79090"/>
<path d="M111.734 168.483C117.846 167.542 130.833 165.029 133.88 162.499C135.065 161.515 137.363 159.562 140.038 157.044M53.4735 168.61C44.5907 166.781 37.6715 164.295 32.2404 161.444M32.2404 161.444C21.4029 155.754 16.4912 148.61 13.7275 142.332C9.57888 132.91 7.37555 124.169 9.38644 86.1928C11.3973 48.2165 25.2735 33.9353 40.1455 19.7464C52.043 8.39524 71.0414 6.03729 79.0534 6.27721C111.212 6.042 128.736 19.2478 133.478 25.8801C134.683 25.6947 143.564 38.8591 147.971 48.3121C152.26 57.5151 153.732 66.2887 155.715 73.1322C158.055 81.2119 160.624 96.2565 159.724 111.164C159.122 121.135 156.446 132.043 155.381 136.371C153.717 143.133 145.954 151.473 140.038 157.044M32.2404 161.444C33.1653 170.628 40.6893 190.373 82.1489 193.812C105.59 195.755 124.99 185.289 132.635 175.942C138.511 168.756 140.85 163.145 140.038 157.044" stroke="#623300" stroke-linecap="round"/>
<path d="M48.8573 76.3272C38.2809 88.8866 31.0608 109.979 28.7729 118.955C28.6271 119.973 28.5334 120.969 28.4889 121.942C27.3658 146.52 57.714 156.7 76.3679 158.669C95.1991 160.656 138.741 152.209 140.505 124.712C140.557 123.893 140.573 123.056 140.549 122.203C140.134 107.076 132.051 91.6424 119.808 75.7699C107.564 59.8974 98.8372 57.1989 98.1689 56.8949C96.7297 56.2402 90.9765 53.2368 86.0003 53.0969C79.5385 52.9152 70.3485 58.4841 70.3485 58.4841C70.3485 58.4841 62.0778 60.6279 48.8573 76.3272Z" fill="#FDDD9D"/>
<path d="M140.505 124.712C140.557 123.893 140.573 123.056 140.549 122.203C140.134 107.076 132.051 91.6424 119.808 75.7699C107.564 59.8974 98.8372 57.1989 98.1689 56.8949C96.7297 56.2402 90.9765 53.2368 86.0003 53.0969C79.5385 52.9152 70.3485 58.4841 70.3485 58.4841C70.3485 58.4841 62.0778 60.6279 48.8573 76.3272C38.2809 88.8866 31.0608 109.979 28.7729 118.955C28.6271 119.973 28.5334 120.969 28.4889 121.942M140.505 124.712C138.741 152.209 95.1991 160.656 76.3679 158.669C57.714 156.7 27.3658 146.52 28.4889 121.942M140.505 124.712C142.877 117.421 146.533 99.8073 142.181 87.6836M28.4889 121.942C25.566 117.778 21.1868 105.082 27.0537 87.6013" stroke="#623300" stroke-linecap="round"/>
<path d="M50.3392 96.2143C52.3602 94.8563 55.641 92.1664 63.1231 93.9623" stroke="#413030" stroke-opacity="0.76" stroke-width="2" stroke-linecap="round"/>
<path d="M107.192 92.7952C109.799 91.4998 114.923 91.0469 120.765 94.5701" stroke="#413030" stroke-opacity="0.76" stroke-width="2" stroke-linecap="round"/>
<ellipse cx="121.402" cy="130.771" rx="8" ry="4" transform="rotate(4.25952 121.402 130.771)" fill="#FF9797"/>
<path d="M117.412 130.473L122.049 128.813" stroke="#E17B85" stroke-width="0.4" stroke-linecap="round"/>
<path d="M120.33 131.694L124.966 130.033" stroke="#E17B85" stroke-width="0.4" stroke-linecap="round"/>
<ellipse cx="50.3007" cy="129.486" rx="8" ry="4" transform="rotate(4.25952 50.3007 129.486)" fill="#FF9797"/>
<path d="M46.2374 130.187L50.8736 128.527" stroke="#E17B85" stroke-width="0.4" stroke-linecap="round"/>
<path d="M49.1549 131.407L53.791 129.746" stroke="#E17B85" stroke-width="0.4" stroke-linecap="round"/>
<path d="M121.299 111C121.299 115.418 118.389 119 114.799 119C111.209 119 108.299 115.418 108.299 111C108.299 106.582 111.209 103 114.799 103C116.658 103 118.334 103.96 119.519 105.5C120.622 106.934 121.299 108.87 121.299 111Z" fill="#1A1414"/>
<path d="M118.799 105C119.465 104.333 120.799 102.8 120.799 102" stroke="#1A1414" stroke-width="0.5" stroke-linecap="round"/>
<path d="M120.299 108C120.965 107.333 122.299 105.8 122.299 105" stroke="#1A1414" stroke-width="0.5" stroke-linecap="round"/>
<circle cx="117.299" cy="108" r="2" fill="white"/>
<ellipse cx="54.7988" cy="112" rx="6.5" ry="8" fill="#1A1414"/>
<path d="M46.2988 107C46.9655 107.667 48.2988 109.2 48.2988 110" stroke="#1A1414" stroke-width="0.5" stroke-linecap="round"/>
<path d="M47.7988 104C48.4655 104.667 49.7988 106.2 49.7988 107" stroke="#1A1414" stroke-width="0.5" stroke-linecap="round"/>
<circle cx="51.2988" cy="111" r="2" fill="#F6F3F3"/>
<path d="M79.2988 142.5C81.2988 144.167 86.1988 146.4 89.7988 142" stroke="#CA6363" stroke-width="2" stroke-linecap="round"/>
</svg>
